<svg width="22" height="20" viewBox="0 0 22 20" fill="none" xmlns="http://www.w3.org/2000/svg">
<path d="M10.75 3.52422L10.201 4.03522C10.3429 4.18764 10.5418 4.27422 10.75 4.27422C10.9582 4.27422 11.1571 4.18764 11.299 4.03522L10.75 3.52422ZM11.299 4.03522L12.064 3.21328L10.9661 2.1913L10.201 3.01323L11.299 4.03522ZM9.436 3.21328L10.201 4.03522L11.299 3.01323L10.5339 2.1913L9.436 3.21328ZM1.78548 11.4326L8.67091 18.8301L9.7689 17.8081L2.88345 10.4107L1.78548 11.4326ZM12.8291 18.8301L19.7145 11.4326L18.6165 10.4107L11.7311 17.8081L12.8291 18.8301ZM18.6165 3.21328C20.4611 5.19505 20.4612 8.4289 18.6165 10.4107L19.7145 11.4326C22.0952 8.875 22.0952 4.74896 19.7145 2.1913L18.6165 3.21328ZM19.7145 2.1913C17.3053 -0.3971 13.3753 -0.3971 10.9661 2.1913L12.064 3.21328C13.88 1.26224 16.8005 1.26224 18.6165 3.21328L19.7145 2.1913ZM2.88346 3.21328C4.69946 1.26224 7.61996 1.26224 9.436 3.21328L10.5339 2.1913C8.1247 -0.3971 4.19472 -0.3971 1.78548 2.1913L2.88346 3.21328ZM8.67091 18.8301C9.8126 20.0566 11.6874 20.0566 12.8291 18.8301L11.7311 17.8081C11.1827 18.3973 10.3173 18.3973 9.7689 17.8081L8.67091 18.8301ZM1.78548 2.1913C-0.595159 4.74896 -0.59516 8.875 1.78548 11.4326L2.88345 10.4107C1.03885 8.4289 1.03885 5.19505 2.88346 3.21328L1.78548 2.1913Z" fill="#28303F"/>
</svg>
